<svg version="1.1" id="Layer_1" xmlns="http://www.w3.org/2000/svg" xmlns:xlink="http://www.w3.org/1999/xlink" x="0px" y="0px"
	 width="100%" viewBox="0 0 1024 576" enable-background="new 0 0 1024 576" xml:space="preserve">
<path fill="#FEFEFE" opacity="1.000000" stroke="none" 
	d="
M750.000000,577.000000 
	C720.645203,577.000000 691.290466,577.000000 661.646240,576.644775 
	C668.349304,574.098877 675.341675,571.908142 682.330383,569.718628 
	C682.562256,571.202271 682.830688,572.919556 683.070862,574.455811 
	C691.419800,574.455811 699.345154,574.455811 707.443726,574.455811 
	C707.443726,540.913208 707.443726,507.703003 707.443726,474.376007 
	C699.077942,474.376007 691.034119,474.376007 682.850281,474.376007 
	C682.657837,476.716309 682.491760,478.735718 682.279663,481.314636 
	C670.916321,473.857513 658.929688,471.654053 646.405151,473.316345 
	C622.036987,476.550507 602.833252,496.309479 600.945251,519.500488 
	C598.851074,545.224609 614.087646,567.566711 638.773376,575.049194 
	C640.244202,575.494995 641.593933,576.340454 643.000000,577.000000 
	C610.978577,577.000000 578.957092,577.000000 546.625732,576.632812 
	C553.485168,574.086670 560.654480,571.907776 567.797852,569.736755 
	C567.970032,571.135681 568.167664,572.740723 568.374817,574.423523 
	C576.518005,574.423523 584.407410,574.423523 592.260010,574.423523 
	C592.260010,529.338440 592.260010,484.619843 592.260010,439.928833 
	C584.014160,439.928833 576.141907,439.928833 567.995850,439.928833 
	C567.995850,447.011536 567.995789,453.663239 567.995789,460.314941 
	C567.995789,467.081390 567.995850,473.847870 567.995850,480.456482 
	C567.401184,480.660828 567.212646,480.799438 567.091248,480.754883 
	C566.479370,480.530609 565.850769,480.318024 565.289673,479.994415 
	C556.555481,474.957367 547.172424,472.763428 537.078979,472.913849 
	C514.280640,473.253632 494.442841,488.464935 488.057953,510.780060 
	C481.801941,532.644897 490.855957,556.975769 510.162567,568.627014 
	C516.000061,572.149780 522.696838,574.248779 529.000000,577.000000 
	C483.978577,577.000000 438.957123,577.000000 393.591919,576.632019 
	C399.914337,574.020142 406.580566,571.776184 413.391205,569.483643 
	C413.612915,571.110657 413.830231,572.705322 414.065826,574.434082 
	C422.300903,574.434082 430.369690,574.434082 438.516907,574.434082 
	C438.516907,529.377441 438.516907,484.676575 438.516907,439.884613 
	C430.100647,439.884613 422.057251,439.884613 413.482697,439.884613 
	C413.482697,453.768921 413.482697,467.274597 413.482697,481.296753 
	C412.143982,480.529053 411.456757,480.099640 410.739319,479.728638 
	C391.326019,469.689880 371.996002,469.942017 353.951538,482.248932 
	C336.521942,494.136505 328.809448,511.501251 332.039398,532.445374 
	C335.423340,554.388062 348.773468,568.398071 369.870178,575.121643 
	C370.998383,575.481201 371.960541,576.361877 373.000000,577.000000 
	C341.311890,577.000000 309.623810,577.000000 277.620453,576.644897 
	C284.222748,574.068970 291.140289,571.848206 298.246735,569.566772 
	C298.416534,570.903625 298.637543,572.643616 298.861420,574.406189 
	C307.038086,574.406189 314.927094,574.406189 322.658447,574.406189 
	C322.658447,540.797119 322.658447,507.569153 322.658447,474.342102 
	C314.480499,474.342102 306.733521,474.342102 298.833527,474.342102 
	C298.611603,476.658539 298.416138,478.698761 298.221405,480.731323 
	C293.691345,478.859009 289.664032,476.869354 285.435944,475.499573 
	C257.163788,466.340271 227.595627,481.110840 218.713104,508.710480 
	C209.628265,536.938721 225.090240,566.006470 253.948669,575.053345 
	C255.059982,575.401672 255.987061,576.337769 257.000000,577.000000 
	C171.694321,577.000000 86.388641,577.000000 1.041481,577.000000 
	C1.041481,385.089874 1.041481,193.179749 1.041481,1.000000 
	C171.354675,1.000000 341.709503,1.000000 512.472168,1.333937 
	C498.162140,15.714617 486.658142,32.179348 477.015594,49.964664 
	C445.964233,107.237427 433.130737,168.513489 437.137695,233.416229 
	C437.418732,237.968735 438.234802,242.488220 438.778351,246.833588 
	C489.109650,246.833588 538.674683,246.833588 588.216431,246.833588 
	C588.461670,246.044601 588.691101,245.587158 588.739258,245.111359 
	C591.875488,214.131546 591.899109,183.223328 585.929565,152.541504 
	C574.909241,95.899368 554.612793,43.616673 514.000000,1.000000 
	C684.277832,1.000000 854.555664,1.000000 1024.916748,1.000000 
	C1024.916748,192.881927 1024.916748,384.763885 1024.916748,577.000000 
	C941.645569,577.000000 858.290588,577.000000 774.617920,576.631958 
	C778.647095,575.182190 783.108704,574.428650 787.319641,572.957642 
	C800.429626,568.377869 808.078796,557.211304 808.123474,543.110107 
	C808.163086,530.604614 801.189758,521.468811 787.708618,516.694214 
	C784.274231,515.477844 780.677979,514.671326 777.109009,513.891724 
	C768.667297,512.047852 760.150940,510.523346 751.760986,508.475494 
	C748.270447,507.623505 745.202271,505.368011 745.292603,501.218201 
	C745.390259,496.728882 748.550171,494.097900 752.513000,493.437317 
	C757.371582,492.627441 762.422729,492.388519 767.343628,492.684326 
	C773.454712,493.051636 777.455017,496.400452 778.652283,502.760162 
	C778.862915,503.878937 780.208679,505.622223 781.073364,505.648315 
	C788.645569,505.876678 796.227661,505.780426 803.823059,505.780426 
	C803.398621,497.478241 800.086792,490.145630 794.576782,484.673035 
	C781.313416,471.499725 752.975952,468.726257 735.621033,478.912750 
	C724.519165,485.429047 718.951843,495.079498 720.170654,507.967865 
	C721.386047,520.821228 728.716797,528.903687 741.095032,532.403442 
	C744.616943,533.399231 748.151550,534.403564 751.739197,535.102051 
	C758.921509,536.500366 766.191162,537.478149 773.331665,539.052063 
	C777.104248,539.883667 780.790527,541.595764 781.077881,546.334290 
	C781.370117,551.152954 778.462585,554.060120 774.534363,556.058533 
	C761.652832,562.611816 747.351135,556.503906 743.451111,542.829346 
	C735.023499,542.829346 726.592285,542.829346 717.898071,542.829346 
	C717.898071,543.917847 717.844788,544.731445 717.911621,545.535095 
	C717.994202,546.527771 718.116577,547.524963 718.325073,548.498108 
	C721.494568,563.293091 731.776062,570.782715 745.387634,574.902039 
	C746.989990,575.386902 748.465637,576.290527 750.000000,577.000000 
M377.340729,190.160278 
	C332.159332,150.445053 281.057800,123.406288 220.026459,115.691505 
	C220.026459,125.155533 219.509521,133.492111 220.115646,141.746201 
	C222.789581,178.158569 234.592316,211.944153 250.643188,244.396393 
	C251.364716,245.855179 254.237381,247.021225 256.111694,247.026443 
	C311.074890,247.179672 366.038544,247.170700 421.002106,247.164307 
	C422.191284,247.164169 423.380493,246.891983 425.278137,246.660156 
	C411.421692,225.598572 395.904205,207.056854 377.340729,190.160278 
M626.500000,247.177856 
	C674.645447,247.172882 722.791016,247.123871 770.936096,247.253067 
	C774.490601,247.262604 776.270691,246.215485 777.618286,242.959595 
	C781.814941,232.820343 786.702576,222.955627 790.631897,212.719421 
	C801.814514,183.587341 809.305481,153.683594 808.002258,122.129585 
	C807.923401,120.221405 807.735474,118.317734 807.559875,115.878937 
	C755.399048,121.736740 710.634460,143.277191 669.870361,174.062302 
	C643.303894,194.125351 620.901917,218.143280 602.312195,247.177856 
	C610.905212,247.177856 618.202576,247.177856 626.500000,247.177856 
M494.499939,292.170563 
	C577.796021,292.181061 661.092102,292.194885 744.388184,292.174591 
	C745.834167,292.174255 747.822205,292.294037 748.639587,291.459229 
	C754.787170,285.180573 759.450256,277.868408 763.610291,269.644775 
	C596.652344,269.644775 430.522003,269.644775 263.050873,269.644775 
	C267.671021,276.484650 271.805695,282.422577 275.729584,288.496674 
	C277.534302,291.290283 279.701965,292.278900 283.094055,292.273407 
	C353.229218,292.159576 423.364563,292.178192 494.499939,292.170563 
M321.500061,316.096802 
	C313.994781,316.096802 306.489502,316.096802 298.984222,316.096802 
	C298.809021,316.583496 298.633850,317.070190 298.458649,317.556885 
	C304.363617,323.122284 310.067017,328.928864 316.282745,334.122314 
	C318.459045,335.940704 321.894745,337.120941 324.756989,337.124176 
	C450.068390,337.266022 575.380005,337.243927 700.691589,337.227112 
	C702.178040,337.226898 703.923828,337.511566 705.109619,336.861969 
	C714.194397,331.885010 722.002930,325.414825 728.681641,316.096802 
	C592.624329,316.096802 457.562195,316.096802 321.500061,316.096802 
M454.493896,359.341156 
	C420.584991,359.341156 386.676117,359.341156 352.767212,359.341156 
	C388.307953,385.968506 427.113007,403.973480 472.831573,408.815247 
	C472.242218,392.021912 471.675568,375.875397 471.095337,359.341187 
	C465.096344,359.341187 460.293396,359.341187 454.493896,359.341156 
M554.287842,388.611816 
	C554.287842,395.173645 554.287842,401.735474 554.287842,408.286438 
	C587.356201,407.789795 663.282593,376.708313 673.789307,359.647095 
	C635.105225,359.647095 596.355652,359.647095 556.918152,359.647095 
	C556.038818,369.139069 555.181519,378.392609 554.287842,388.611816 
M475.738464,477.806488 
	C474.904999,476.548248 474.114502,474.234253 473.231293,474.198273 
	C465.980011,473.903137 458.711548,474.031738 451.389832,474.031738 
	C451.389832,507.912994 451.389832,541.092773 451.389832,574.416809 
	C459.623566,574.416809 467.501007,574.416809 475.732605,574.416809 
	C475.732605,542.275085 475.732605,510.511475 475.738464,477.806488 
M501.500214,359.336639 
	C493.298492,359.336639 485.096802,359.336639 476.059296,359.336639 
	C487.150604,378.823761 497.906250,397.011536 513.644897,412.101959 
	C528.544495,396.292877 540.228149,378.946838 550.500488,359.336670 
	C533.935364,359.336670 518.217834,359.336670 501.500214,359.336639 
M451.105499,441.031494 
	C451.105499,448.904205 451.105499,456.776917 451.105499,464.416687 
	C459.784729,464.416687 467.646576,464.416687 475.399414,464.416687 
	C475.399414,455.972229 475.399414,447.939545 475.399414,440.168488 
	C467.140991,440.168488 459.258911,440.168488 451.105499,441.031494 
z"/>
<path fill="#010101" opacity="1.000000" stroke="none" 
	d="
M513.750000,1.000000 
	C554.612793,43.616673 574.909241,95.899368 585.929565,152.541504 
	C591.899109,183.223328 591.875488,214.131546 588.739258,245.111359 
	C588.691101,245.587158 588.461670,246.044601 588.216431,246.833588 
	C538.674683,246.833588 489.109650,246.833588 438.778351,246.833588 
	C438.234802,242.488220 437.418732,237.968735 437.137695,233.416229 
	C433.130737,168.513489 445.964233,107.237427 477.015594,49.964664 
	C486.658142,32.179348 498.162140,15.714617 512.940063,1.333937 
	C513.000000,1.000000 513.500000,1.000000 513.750000,1.000000 
z"/>
<path fill="#050505" opacity="1.000000" stroke="none" 
	d="
M373.468384,577.000000 
	C371.960541,576.361877 370.998383,575.481201 369.870178,575.121643 
	C348.773468,568.398071 335.423340,554.388062 332.039398,532.445374 
	C328.809448,511.501251 336.521942,494.136505 353.951538,482.248932 
	C371.996002,469.942017 391.326019,469.689880 410.739319,479.728638 
	C411.456757,480.099640 412.143982,480.529053 413.482697,481.296753 
	C413.482697,467.274597 413.482697,453.768921 413.482697,439.884613 
	C422.057251,439.884613 430.100647,439.884613 438.516907,439.884613 
	C438.516907,484.676575 438.516907,529.377441 438.516907,574.434082 
	C430.369690,574.434082 422.300903,574.434082 414.065826,574.434082 
	C413.830231,572.705322 413.612915,571.110657 413.391205,569.483643 
	C406.580566,571.776184 399.914337,574.020142 393.124054,576.632019 
	C386.645599,577.000000 380.291199,577.000000 373.468384,577.000000 
M371.412933,550.240051 
	C381.508484,555.337097 391.427734,554.985535 400.701172,548.524353 
	C409.460419,542.421387 414.281708,533.914612 413.493103,522.996460 
	C412.498291,509.224457 401.813507,497.740814 388.854736,496.040863 
	C374.974945,494.220093 361.523834,502.447296 356.974823,515.539856 
	C352.305695,528.978210 357.553345,542.076477 371.412933,550.240051 
z"/>
<path fill="#060606" opacity="1.000000" stroke="none" 
	d="
M529.467590,577.000000 
	C522.696838,574.248779 516.000061,572.149780 510.162567,568.627014 
	C490.855957,556.975769 481.801941,532.644897 488.057953,510.780060 
	C494.442841,488.464935 514.280640,473.253632 537.078979,472.913849 
	C547.172424,472.763428 556.555481,474.957367 565.289673,479.994415 
	C565.850769,480.318024 566.479370,480.530609 567.091248,480.754883 
	C567.212646,480.799438 567.401184,480.660828 567.995850,480.456482 
	C567.995850,473.847870 567.995789,467.081390 567.995789,460.314941 
	C567.995789,453.663239 567.995850,447.011536 567.995850,439.928833 
	C576.141907,439.928833 584.014160,439.928833 592.260010,439.928833 
	C592.260010,484.619843 592.260010,529.338440 592.260010,574.423523 
	C584.407410,574.423523 576.518005,574.423523 568.374817,574.423523 
	C568.167664,572.740723 567.970032,571.135681 567.797852,569.736755 
	C560.654480,571.907776 553.485168,574.086670 546.157959,576.632812 
	C540.645081,577.000000 535.290100,577.000000 529.467590,577.000000 
M512.124451,514.904419 
	C508.130646,527.114014 511.017151,538.399536 520.504761,546.492065 
	C529.760071,554.386353 540.104614,555.870605 551.161438,550.715576 
	C561.994019,545.665039 568.571350,534.537170 567.887329,522.930054 
	C567.143188,510.303284 556.810547,498.696533 544.079895,496.186981 
	C531.121338,493.632507 518.909424,500.555878 512.124451,514.904419 
z"/>
<path fill="#060606" opacity="1.000000" stroke="none" 
	d="
M643.467957,577.000000 
	C641.593933,576.340454 640.244202,575.494995 638.773376,575.049194 
	C614.087646,567.566711 598.851074,545.224609 600.945251,519.500488 
	C602.833252,496.309479 622.036987,476.550507 646.405151,473.316345 
	C658.929688,471.654053 670.916321,473.857513 682.279663,481.314636 
	C682.491760,478.735718 682.657837,476.716309 682.850281,474.376007 
	C691.034119,474.376007 699.077942,474.376007 707.443726,474.376007 
	C707.443726,507.703003 707.443726,540.913208 707.443726,574.455811 
	C699.345154,574.455811 691.419800,574.455811 683.070862,574.455811 
	C682.830688,572.919556 682.562256,571.202271 682.330383,569.718628 
	C675.341675,571.908142 668.349304,574.098877 661.178467,576.644775 
	C655.311951,577.000000 649.623962,577.000000 643.467957,577.000000 
M632.369690,543.099915 
	C644.330444,556.508850 662.561279,557.241333 674.522034,544.793579 
	C686.063721,532.781982 684.823425,513.055359 671.842224,502.172333 
	C660.953796,493.043854 645.321655,493.756378 634.619202,503.869049 
	C623.478027,514.396118 622.387451,530.001404 632.369690,543.099915 
z"/>
<path fill="#050505" opacity="1.000000" stroke="none" 
	d="
M257.468384,577.000000 
	C255.987061,576.337769 255.059982,575.401672 253.948669,575.053345 
	C225.090240,566.006470 209.628265,536.938721 218.713104,508.710480 
	C227.595627,481.110840 257.163788,466.340271 285.435944,475.499573 
	C289.664032,476.869354 293.691345,478.859009 298.221405,480.731323 
	C298.416138,478.698761 298.611603,476.658539 298.833527,474.342102 
	C306.733521,474.342102 314.480499,474.342102 322.658447,474.342102 
	C322.658447,507.569153 322.658447,540.797119 322.658447,574.406189 
	C314.927094,574.406189 307.038086,574.406189 298.861420,574.406189 
	C298.637543,572.643616 298.416534,570.903625 298.246735,569.566772 
	C291.140289,571.848206 284.222748,574.068970 277.152588,576.644897 
	C270.645599,577.000000 264.291199,577.000000 257.468384,577.000000 
M245.372513,541.030701 
	C253.387909,551.291077 263.684143,556.068298 276.524933,552.525452 
	C288.198456,549.304688 295.799896,541.442505 298.008820,529.330688 
	C300.304993,516.740662 293.389130,504.308105 281.524994,498.603302 
	C269.965637,493.045044 256.806915,495.699799 247.817657,505.403748 
	C238.732010,515.211670 237.687439,528.118286 245.372513,541.030701 
z"/>
<path fill="#060606" opacity="1.000000" stroke="none" 
	d="
M750.468628,577.000000 
	C748.465637,576.290527 746.989990,575.386902 745.387634,574.902039 
	C731.776062,570.782715 721.494568,563.293091 718.325073,548.498108 
	C718.116577,547.524963 717.994202,546.527771 717.911621,545.535095 
	C717.844788,544.731445 717.898071,543.917847 717.898071,542.829346 
	C726.592285,542.829346 735.023499,542.829346 743.451111,542.829346 
	C747.351135,556.503906 761.652832,562.611816 774.534363,556.058533 
	C778.462585,554.060120 781.370117,551.152954 781.077881,546.334290 
	C780.790527,541.595764 777.104248,539.883667 773.331665,539.052063 
	C766.191162,537.478149 758.921509,536.500366 751.739197,535.102051 
	C748.151550,534.403564 744.616943,533.399231 741.095032,532.403442 
	C728.716797,528.903687 721.386047,520.821228 720.170654,507.967865 
	C718.951843,495.079498 724.519165,485.429047 735.621033,478.912750 
	C752.975952,468.726257 781.313416,471.499725 794.576782,484.673035 
	C800.086792,490.145630 803.398621,497.478241 803.823059,505.780426 
	C796.227661,505.780426 788.645569,505.876678 781.073364,505.648315 
	C780.208679,505.622223 778.862915,503.878937 778.652283,502.760162 
	C777.455017,496.400452 773.454712,493.051636 767.343628,492.684326 
	C762.422729,492.388519 757.371582,492.627441 752.513000,493.437317 
	C748.550171,494.097900 745.390259,496.728882 745.292603,501.218201 
	C745.202271,505.368011 748.270447,507.623505 751.760986,508.475494 
	C760.150940,510.523346 768.667297,512.047852 777.109009,513.891724 
	C780.677979,514.671326 784.274231,515.477844 787.708618,516.694214 
	C801.189758,521.468811 808.163086,530.604614 808.123474,543.110107 
	C808.078796,557.211304 800.429626,568.377869 787.319641,572.957642 
	C783.108704,574.428650 778.647095,575.182190 774.150085,576.631958 
	C766.312439,577.000000 758.624817,577.000000 750.468628,577.000000 
z"/>
<path fill="#020202" opacity="1.000000" stroke="none" 
	d="
M377.604858,190.394165 
	C395.904205,207.056854 411.421692,225.598572 425.278137,246.660156 
	C423.380493,246.891983 422.191284,247.164169 421.002106,247.164307 
	C366.038544,247.170700 311.074890,247.179672 256.111694,247.026443 
	C254.237381,247.021225 251.364716,245.855179 250.643188,244.396393 
	C234.592316,211.944153 222.789581,178.158569 220.115646,141.746201 
	C219.509521,133.492111 220.026459,125.155533 220.026459,115.691505 
	C281.057800,123.406288 332.159332,150.445053 377.604858,190.394165 
z"/>
<path fill="#020202" opacity="1.000000" stroke="none" 
	d="
M626.000000,247.177856 
	C618.202576,247.177856 610.905212,247.177856 602.312195,247.177856 
	C620.901917,218.143280 643.303894,194.125351 669.870361,174.062302 
	C710.634460,143.277191 755.399048,121.736740 807.559875,115.878937 
	C807.735474,118.317734 807.923401,120.221405 808.002258,122.129585 
	C809.305481,153.683594 801.814514,183.587341 790.631897,212.719421 
	C786.702576,222.955627 781.814941,232.820343 777.618286,242.959595 
	C776.270691,246.215485 774.490601,247.262604 770.936096,247.253067 
	C722.791016,247.123871 674.645447,247.172882 626.000000,247.177856 
z"/>
<path fill="#050505" opacity="1.000000" stroke="none" 
	d="
M493.999908,292.170563 
	C423.364563,292.178192 353.229218,292.159576 283.094055,292.273407 
	C279.701965,292.278900 277.534302,291.290283 275.729584,288.496674 
	C271.805695,282.422577 267.671021,276.484650 263.050873,269.644775 
	C430.522003,269.644775 596.652344,269.644775 763.610291,269.644775 
	C759.450256,277.868408 754.787170,285.180573 748.639587,291.459229 
	C747.822205,292.294037 745.834167,292.174255 744.388184,292.174591 
	C661.092102,292.194885 577.796021,292.181061 493.999908,292.170563 
z"/>
<path fill="#030303" opacity="1.000000" stroke="none" 
	d="
M322.000061,316.096802 
	C457.562195,316.096802 592.624329,316.096802 728.681641,316.096802 
	C722.002930,325.414825 714.194397,331.885010 705.109619,336.861969 
	C703.923828,337.511566 702.178040,337.226898 700.691589,337.227112 
	C575.380005,337.243927 450.068390,337.266022 324.756989,337.124176 
	C321.894745,337.120941 318.459045,335.940704 316.282745,334.122314 
	C310.067017,328.928864 304.363617,323.122284 298.458649,317.556885 
	C298.633850,317.070190 298.809021,316.583496 298.984222,316.096802 
	C306.489502,316.096802 313.994781,316.096802 322.000061,316.096802 
z"/>
<path fill="#060606" opacity="1.000000" stroke="none" 
	d="
M454.992188,359.341187 
	C460.293396,359.341187 465.096344,359.341187 471.095337,359.341187 
	C471.675568,375.875397 472.242218,392.021912 472.831573,408.815247 
	C427.113007,403.973480 388.307953,385.968506 352.767212,359.341156 
	C386.676117,359.341156 420.584991,359.341156 454.992188,359.341187 
z"/>
<path fill="#070707" opacity="1.000000" stroke="none" 
	d="
M554.306030,388.128967 
	C555.181519,378.392609 556.038818,369.139069 556.918152,359.647095 
	C596.355652,359.647095 635.105225,359.647095 673.789307,359.647095 
	C663.282593,376.708313 587.356201,407.789795 554.287842,408.286438 
	C554.287842,401.735474 554.287842,395.173645 554.306030,388.128967 
z"/>
<path fill="#080808" opacity="1.000000" stroke="none" 
	d="
M475.735535,478.277161 
	C475.732605,510.511475 475.732605,542.275085 475.732605,574.416809 
	C467.501007,574.416809 459.623566,574.416809 451.389832,574.416809 
	C451.389832,541.092773 451.389832,507.912994 451.389832,474.031738 
	C458.711548,474.031738 465.980011,473.903137 473.231293,474.198273 
	C474.114502,474.234253 474.904999,476.548248 475.735535,478.277161 
z"/>
<path fill="#080808" opacity="1.000000" stroke="none" 
	d="
M502.000244,359.336670 
	C518.217834,359.336670 533.935364,359.336670 550.500488,359.336670 
	C540.228149,378.946838 528.544495,396.292877 513.644897,412.101959 
	C497.906250,397.011536 487.150604,378.823761 476.059296,359.336639 
	C485.096802,359.336639 493.298492,359.336639 502.000244,359.336670 
z"/>
<path fill="#0A0A0A" opacity="1.000000" stroke="none" 
	d="
M451.241150,440.599976 
	C459.258911,440.168488 467.140991,440.168488 475.399414,440.168488 
	C475.399414,447.939545 475.399414,455.972229 475.399414,464.416687 
	C467.646576,464.416687 459.784729,464.416687 451.105499,464.416687 
	C451.105499,456.776917 451.105499,448.904205 451.241150,440.599976 
z"/>
<path fill="#FBFBFB" opacity="1.000000" stroke="none" 
	d="
M371.077911,550.072632 
	C357.553345,542.076477 352.305695,528.978210 356.974823,515.539856 
	C361.523834,502.447296 374.974945,494.220093 388.854736,496.040863 
	C401.813507,497.740814 412.498291,509.224457 413.493103,522.996460 
	C414.281708,533.914612 409.460419,542.421387 400.701172,548.524353 
	C391.427734,554.985535 381.508484,555.337097 371.077911,550.072632 
z"/>
<path fill="#FBFBFB" opacity="1.000000" stroke="none" 
	d="
M512.249390,514.533203 
	C518.909424,500.555878 531.121338,493.632507 544.079895,496.186981 
	C556.810547,498.696533 567.143188,510.303284 567.887329,522.930054 
	C568.571350,534.537170 561.994019,545.665039 551.161438,550.715576 
	C540.104614,555.870605 529.760071,554.386353 520.504761,546.492065 
	C511.017151,538.399536 508.130646,527.114014 512.249390,514.533203 
z"/>
<path fill="#FBFBFB" opacity="1.000000" stroke="none" 
	d="
M632.143433,542.816101 
	C622.387451,530.001404 623.478027,514.396118 634.619202,503.869049 
	C645.321655,493.756378 660.953796,493.043854 671.842224,502.172333 
	C684.823425,513.055359 686.063721,532.781982 674.522034,544.793579 
	C662.561279,557.241333 644.330444,556.508850 632.143433,542.816101 
z"/>
<path fill="#FBFBFB" opacity="1.000000" stroke="none" 
	d="
M245.178665,540.718201 
	C237.687439,528.118286 238.732010,515.211670 247.817657,505.403748 
	C256.806915,495.699799 269.965637,493.045044 281.524994,498.603302 
	C293.389130,504.308105 300.304993,516.740662 298.008820,529.330688 
	C295.799896,541.442505 288.198456,549.304688 276.524933,552.525452 
	C263.684143,556.068298 253.387909,551.291077 245.178665,540.718201 
z"/>
</svg>