<svg version="1.1" id="Layer_1" xmlns="http://www.w3.org/2000/svg" xmlns:xlink="http://www.w3.org/1999/xlink" x="0px" y="0px"
	 width="100%" viewBox="0 0 1024 832" enable-background="new 0 0 1024 832" xml:space="preserve">
<path fill="#000000" opacity="1.000000" stroke="none" 
	d="
M647.192505,146.845612 
	C682.168823,206.904190 716.987854,266.631622 751.771423,326.379730 
	C778.424255,372.161621 805.032959,417.969238 831.657593,463.767578 
	C832.569031,465.335297 833.728210,466.798950 833.929626,468.687561 
	C832.609497,470.671173 830.600647,470.048401 828.888489,470.050140 
	C773.230225,470.105743 717.571899,470.080444 661.913818,470.213654 
	C657.967285,470.223083 655.951294,468.585480 654.118103,465.373322 
	C626.538452,417.047638 598.862122,368.777069 571.211304,320.491943 
	C540.168091,266.282806 509.172852,212.046021 477.996307,157.913666 
	C475.623230,153.793213 475.883545,151.807297 480.120361,149.387573 
	C520.914368,126.089272 561.620911,102.637314 602.291382,79.123802 
	C605.423096,77.313194 607.086304,77.465744 608.979248,80.771332 
	C621.562073,102.744453 634.319458,124.617653 647.192505,146.845612 
z"/>
<path fill="#000000" opacity="1.000000" stroke="none" 
	d="
M343.140747,322.802612 
	C338.085052,314.142578 333.217865,305.796234 328.350250,297.450134 
	C324.927979,291.582123 324.916107,291.562561 330.855652,288.048035 
	C363.830109,268.536499 396.812073,249.037613 429.788116,229.528732 
	C436.956696,225.287750 444.257385,221.246063 451.216919,216.684906 
	C455.257629,214.036682 457.283417,214.608200 459.692352,218.810669 
	C477.088531,249.158936 494.708679,279.378815 512.256531,309.640137 
	C542.088501,361.085480 571.919434,412.531403 601.751709,463.976562 
	C602.653564,465.531738 603.836731,466.972412 603.878174,468.844757 
	C602.344299,470.651550 600.379578,470.073334 598.648376,470.075012 
	C543.825806,470.128387 489.003174,470.106598 434.180817,470.229645 
	C430.367889,470.238190 428.145935,468.981567 426.230408,465.676422 
	C398.666534,418.115906 370.983521,370.624451 343.140747,322.802612 
z"/>
<path fill="#000000" opacity="1.000000" stroke="none" 
	d="
M651.094238,591.000000 
	C651.083801,626.821594 651.081848,662.143188 651.054382,697.464783 
	C651.049072,704.358582 651.003357,704.355530 644.097656,704.347717 
	C635.267212,704.337646 626.426636,704.077026 617.610474,704.428345 
	C612.846069,704.618164 610.700012,703.276123 611.526611,698.343811 
	C611.627319,697.743042 611.324097,697.074646 611.205444,696.422668 
	C608.620972,695.485229 606.992004,697.312744 605.176331,698.218201 
	C570.917603,715.302063 533.176880,710.297180 507.338684,684.047180 
	C483.652771,659.983765 476.336853,631.051514 487.543274,598.987976 
	C498.528168,567.558105 521.681763,549.644165 554.584778,544.990845 
	C572.326843,542.481628 589.435852,545.376587 605.368774,554.014648 
	C606.794495,554.787659 608.141602,555.906128 610.284119,555.647766 
	C611.378784,553.611206 610.959778,551.255188 610.967163,549.016479 
	C611.021790,532.355408 611.157104,515.692261 610.932251,499.034241 
	C610.864502,494.014008 612.502991,492.320984 617.561157,492.527588 
	C626.543152,492.894531 635.551086,492.609100 644.548096,492.630066 
	C650.920166,492.644897 650.988281,492.741180 650.994812,499.030701 
	C651.026611,529.520447 651.060608,560.010254 651.094238,591.000000 
M522.121948,623.670227 
	C522.257019,626.995667 521.981628,630.398743 522.593079,633.634155 
	C526.940430,656.636536 550.270081,673.182800 572.818298,669.481567 
	C598.579224,665.252991 614.740417,641.037170 610.768555,618.707703 
	C606.881897,596.857727 586.453186,580.399353 563.254578,581.346680 
	C542.505615,582.193909 523.424072,601.425110 522.121948,623.670227 
z"/>
<path fill="#000000" opacity="1.000000" stroke="none" 
	d="
M409.367340,625.000122 
	C409.369446,649.816162 409.248352,674.133362 409.478699,698.447266 
	C409.523895,703.220337 407.834167,704.464783 403.415863,704.342834 
	C394.428528,704.094727 385.421478,704.019287 376.439362,704.341125 
	C371.578125,704.515381 369.105469,703.142151 369.652710,697.977478 
	C369.715668,697.383301 369.382202,696.747070 369.195374,695.977234 
	C324.634430,717.129761 285.401642,712.324524 255.058334,671.235474 
	C236.093063,645.553894 235.645752,607.828796 254.156464,581.911133 
	C284.225800,539.809814 323.964447,535.600769 368.848389,555.747620 
	C370.240448,554.026794 369.649261,551.948059 369.655212,550.028870 
	C369.708435,532.873840 369.828125,515.716797 369.601410,498.564667 
	C369.540741,493.973480 370.981415,492.445282 375.571594,492.589264 
	C384.889496,492.881500 394.230194,492.891876 403.547028,492.582733 
	C408.197845,492.428375 409.459900,494.052124 409.444153,498.585114 
	C409.298279,540.556396 409.363373,582.528320 409.367340,625.000122 
M303.423248,586.875610 
	C274.296570,604.186279 271.397034,641.381409 297.995605,660.905518 
	C312.617920,671.638672 328.744904,673.235718 345.042145,664.812378 
	C361.196075,656.463257 369.883026,642.869446 369.609344,624.529968 
	C369.175110,595.436279 336.051666,569.883667 303.423248,586.875610 
z"/>
<path fill="#000000" opacity="1.000000" stroke="none" 
	d="
M745.997437,544.116150 
	C761.858948,544.485962 776.272949,548.596008 789.957458,556.414551 
	C790.355042,555.211853 790.723206,554.627014 790.713501,554.048401 
	C790.559998,544.907715 790.880493,545.790710 799.902771,545.763855 
	C808.568604,545.738037 817.236938,545.864014 825.899231,545.684570 
	C829.651611,545.606873 831.305481,546.744507 831.298340,550.777039 
	C831.211060,600.272217 831.210632,649.767761 831.300720,699.262939 
	C831.308044,703.269714 829.730286,704.441406 825.948303,704.369446 
	C816.452576,704.188721 806.943420,704.071594 797.455322,704.392517 
	C792.622803,704.555969 790.058472,703.362244 790.800781,698.083984 
	C790.884766,697.486938 790.545654,696.830322 790.402527,696.200439 
	C788.191162,695.746033 786.836121,697.238525 785.292175,698.059937 
	C734.776489,724.934998 674.487183,696.255249 664.193542,639.967957 
	C655.651367,593.258484 689.392517,547.926575 739.071838,544.633789 
	C741.232361,544.490601 743.389038,544.289795 745.997437,544.116150 
M742.826782,669.713867 
	C756.764404,670.629700 768.605408,666.161438 778.433411,656.158813 
	C796.022949,638.256714 794.823303,609.651062 775.668152,592.557739 
	C756.876343,575.788696 728.160645,578.092346 712.621216,597.699768 
	C702.242920,610.794922 698.801270,625.361938 705.138489,641.164368 
	C711.750366,657.651733 724.386902,666.979919 742.826782,669.713867 
z"/>
<path fill="#000000" opacity="1.000000" stroke="none" 
	d="
M63.220070,647.525391 
	C51.006248,599.138977 80.136673,552.775269 131.622513,545.043762 
	C148.865723,542.454346 165.456238,545.259766 181.197647,552.879150 
	C183.394577,553.942566 185.391556,555.566589 187.936996,555.722107 
	C188.206909,555.359741 188.530319,555.123108 188.565948,554.849121 
	C189.735504,545.855103 189.731384,545.847534 199.092545,545.826599 
	C207.257523,545.808289 215.424301,545.904480 223.586685,545.754700 
	C227.057251,545.690979 228.601562,546.533203 228.588974,550.512268 
	C228.433945,599.496399 228.454575,648.481079 228.439835,697.465576 
	C228.437775,704.279419 228.462555,704.284546 221.564224,704.284790 
	C213.732468,704.285095 205.900711,704.279358 198.068954,704.268433 
	C189.628143,704.256653 189.628143,704.252686 188.151962,695.604370 
	C159.145905,711.903870 129.697571,713.095276 100.696503,696.682861 
	C81.621140,685.887573 69.526588,668.976990 63.220070,647.525391 
M147.187561,669.719238 
	C167.638214,668.043640 184.000031,653.542053 188.254913,633.320923 
	C191.931564,615.847900 182.255661,596.016357 165.085358,586.867249 
	C149.107468,578.353455 133.200455,579.139038 118.407112,589.576721 
	C103.509064,600.088196 96.736916,615.036560 99.657631,632.987732 
	C103.455925,656.332764 125.397919,671.492188 147.187561,669.719238 
z"/>
<path fill="#000000" opacity="1.000000" stroke="none" 
	d="
M954.963318,702.156982 
	C929.009888,710.250549 903.447693,710.981812 878.397400,700.634033 
	C859.302734,692.746338 848.594788,677.908386 845.419983,657.481079 
	C844.883972,654.032593 845.846375,652.882019 849.115601,652.894714 
	C860.444824,652.938782 871.774353,652.918701 883.103760,652.915283 
	C885.270020,652.914612 886.698181,653.499268 887.591187,655.894836 
	C894.079346,673.300354 907.381287,680.507568 925.954224,677.030640 
	C931.299255,676.030151 936.241455,674.439758 940.173279,670.404358 
	C947.963196,662.409119 946.039978,653.623230 935.539124,649.915588 
	C924.009705,645.844849 911.790527,644.977844 899.935669,642.409912 
	C892.939819,640.894531 885.924744,639.455688 879.137512,637.155579 
	C861.861816,631.300964 851.698914,619.227661 849.272827,601.250244 
	C846.984436,584.293518 852.742004,569.993652 866.036987,559.184753 
	C877.811401,549.612122 891.734009,545.648376 906.743103,544.613281 
	C923.536011,543.455261 939.626709,545.418274 954.636047,553.551025 
	C970.078430,561.918396 978.709534,575.059814 981.904358,592.104187 
	C982.510559,595.338501 981.408142,596.971069 978.166687,596.981628 
	C967.171021,597.017456 956.175171,596.995667 945.179382,596.981689 
	C943.069397,596.979065 941.966309,595.874084 941.261963,593.860291 
	C935.896423,578.519104 930.667297,574.949707 914.151245,575.433533 
	C909.322571,575.574951 904.515564,576.251038 899.893738,577.718689 
	C894.116760,579.553223 890.558228,583.653442 890.399475,588.702087 
	C890.218140,594.473755 894.113892,597.393555 898.713562,599.396790 
	C908.275574,603.561584 918.657410,604.532104 928.731995,606.676453 
	C938.497131,608.754883 948.379028,610.369995 957.854980,613.604675 
	C972.498413,618.603271 983.141663,627.925964 987.012878,643.265991 
	C992.278870,664.132751 984.204468,689.273804 959.474609,700.278137 
	C958.105652,700.887207 956.711914,701.440491 954.963318,702.156982 
z"/>
<path fill="#000000" opacity="1.000000" stroke="none" 
	d="
M193.954407,411.916260 
	C228.600220,391.904236 262.970337,372.144745 297.186218,352.121613 
	C301.637909,349.516479 303.523956,350.272400 306.004913,354.553284 
	C327.219238,391.157806 348.655060,427.633911 370.019409,464.151459 
	C370.917877,465.687195 372.137787,467.124908 371.931122,469.009277 
	C370.236481,470.613312 368.312042,470.138580 366.558350,470.139404 
	C311.740906,470.165222 256.923401,470.120026 202.106171,470.226257 
	C198.265488,470.233704 196.046539,468.969910 194.207520,465.620270 
	C187.474655,453.356842 180.595474,441.169067 173.501236,429.111755 
	C171.520981,425.746124 172.298370,424.267914 175.453537,422.575287 
	C181.614944,419.269897 187.582825,415.603729 193.954407,411.916260 
z"/>
<path fill="#000000" opacity="1.000000" stroke="none" 
	d="
M468.150940,551.267578 
	C468.156982,600.374207 468.158539,649.010376 468.149750,697.646484 
	C468.148560,704.291687 468.124756,704.308411 461.504456,704.315063 
	C452.176941,704.324402 442.846832,704.174377 433.523193,704.361572 
	C429.581909,704.440735 427.803741,703.333313 427.810120,699.043579 
	C427.883240,649.741333 427.850616,600.438721 427.745117,551.136475 
	C427.736725,547.223999 429.201599,545.826416 433.045135,545.881958 
	C443.036652,546.026367 453.032532,545.977966 463.025208,545.869629 
	C466.536133,545.831543 468.444519,547.066711 468.150940,551.267578 
z"/>
<path fill="#000000" opacity="1.000000" stroke="none" 
	d="
M448.000031,532.224487 
	C442.347321,532.209839 437.193848,532.145264 432.041595,532.199280 
	C429.101593,532.230103 427.802979,530.873718 427.814728,527.976807 
	C427.857941,517.338501 427.902679,506.699707 427.842316,496.061676 
	C427.823486,492.739563 429.480988,491.779968 432.507233,491.801605 
	C442.812744,491.875336 453.120056,491.902130 463.424744,491.782379 
	C467.069336,491.740051 468.409454,493.185638 468.353882,496.824829 
	C468.199097,506.962341 468.204529,517.105225 468.355621,527.242859 
	C468.409363,530.847900 467.165802,532.402649 463.458557,532.265869 
	C458.478546,532.082214 453.486572,532.222839 448.000031,532.224487 
z"/>
</svg>